<?xml version="1.0" encoding="UTF-8"?>
<svg id="Layer_2" data-name="Layer 2" xmlns="http://www.w3.org/2000/svg" viewBox="0 0 230.09 163.9">
  <defs>
    <style>
      .cls-1 {
        fill: #feff01;
      }

      .cls-2 {
        fill: #fff;
      }

      .cls-3 {
        fill: #fb0200;
      }

      .cls-4 {
        fill: #007600;
      }
    </style>
  </defs>
  <g id="Layer_1-2" data-name="Layer 1">
    <g>
      <rect class="cls-2" width="230.09" height="163.9" rx="36.51" ry="36.51"/>
      <g>
        <g>
          <path class="cls-4" d="M201.25,98.43l12.32,11.29-4.83,4.83c-.77.77-2.01.77-2.77,0l-1.21-1.21c-.63-.63-1.59-.76-2.36-.32-1.53.86-3.17,1.55-4.9,2.03-.85.24-1.44,1.01-1.44,1.89v1.72c0,1.08-.88,1.96-1.96,1.96h-4.86c-1.08,0-1.96-.88-1.96-1.96v-1.72c0-.88-.59-1.65-1.44-1.89-1.73-.48-3.37-1.16-4.9-2.03-.77-.44-1.73-.31-2.36.32l-1.21,1.21c-.77.77-2.01.77-2.77,0l-3.44-3.44c-.77-.77-.77-2.01,0-2.78l1.22-1.21c.62-.62.75-1.59.32-2.36-.87-1.53-1.55-3.17-2.03-4.9-.24-.85-1.01-1.44-1.89-1.44h-1.72c-1.08,0-1.96-.88-1.96-1.96v-4.87c0-1.08.88-1.96,1.96-1.96h1.72c.88,0,1.65-.59,1.89-1.44.48-1.73,1.16-3.37,2.03-4.9.44-.77.31-1.73-.32-2.36l-1.22-1.21c-.77-.77-.77-2.01,0-2.78l3.44-3.44c.77-.77,2.01-.77,2.77,0l1.21,1.21c.63.63,1.59.75,2.36.32,1.53-.86,3.17-1.55,4.9-2.03.85-.24,1.44-1.01,1.44-1.89v-1.72c0-1.08.88-1.96,1.96-1.96h4.86c1.08,0,1.96.88,1.96,1.96v1.72c0,.88.59,1.65,1.44,1.89,1.73.48,3.37,1.16,4.9,2.03.77.44,1.73.31,2.36-.32l1.21-1.21c.77-.77,2.01-.77,2.77,0l4.83,4.82-12.32,11.29c-1.05-2.29-2.9-4.14-5.19-5.19-.24-.11-.48-.21-.72-.3-1.14-.42-2.38-.66-3.67-.66s-2.52.23-3.67.66c-.25.09-.49.19-.72.3-2.29,1.05-4.14,2.9-5.19,5.19-.11.24-.21.48-.3.72-.42,1.14-.66,2.38-.66,3.67s.23,2.52.66,3.67c.09.25.19.49.3.73,1.05,2.29,2.9,4.14,5.18,5.19.24.11.48.21.73.3,1.14.42,2.38.66,3.67.66s2.52-.23,3.67-.66c.25-.09.49-.19.72-.3,2.29-1.05,4.14-2.9,5.19-5.19Z"/>
          <path d="M105.36,68.96l-9.7,26.48-9.7-26.48h-16.01v46.75c0,1.89,1.53,3.42,3.42,3.42h6.02c1.89,0,3.42-1.53,3.42-3.42v-24.33l7.18,19.58.42,1.16c.49,1.35,1.77,2.24,3.21,2.24h4.11c1.43,0,2.71-.89,3.21-2.24l.42-1.16,6.62-18.07v22.82c0,1.89,1.53,3.42,3.42,3.42h6.02c1.89,0,3.42-1.53,3.42-3.42v-46.75h-15.46Z"/>
          <circle cx="64.55" cy="94.04" r="3.3"/>
          <g>
            <path d="M60.54,105.21c-.35,13.97-19.61,14.65-27.7,14.65-4.9,0-9.56-.56-13.75-1.56v-48.47c4.01-1.03,8.47-1.6,13.17-1.6,7.78,0,25.9.57,25.49,14.47,0,2.38-.72,4.64-2.03,6.72-.89,1.42-2.06,2.74-3.45,3.95,1.92,1.17,3.56,2.48,4.86,3.9,2.18,2.39,3.41,5.08,3.41,7.94Z"/>
            <g>
              <path class="cls-3" d="M36.9,104.52c0-.91.37-1.74.97-2.33.6-.6,1.42-.97,2.34-.97h8.1c-1.21-3.88-4.48-6.66-8.32-6.66s-6.8,2.52-8.13,6.11h-12.75v7.7h12.75c1.33,3.59,4.47,6.11,8.13,6.11,3.84,0,7.12-2.78,8.32-6.66h-8.1c-1.83,0-3.3-1.48-3.3-3.3Z"/>
              <path class="cls-3" d="M27.49,85.34s.09-.09.13-.14h5.82c.84,0,1.57.69,1.54,1.53-.01.38-.18.73-.43.99-.15.15-.46.27-.7.34-.21.06-.35.26-.35.47v2.4c0,.38.31.69.69.69h5.1c.53,0,.95-.43.95-.95v-1.96c0-.28-.17-.55-.44-.64-.59-.19-1.01-.74-1.01-1.4,0-.41.16-.78.43-1.04.13-.13.28-.23.44-.3.2-.09.33-.3.32-.52l-.02-.33c.18-.03.33-.12.45-.24.16-.16.26-.38.26-.63,0-.34-.19-.64-.48-.79-.2-.1-.31-.31-.32-.54-.03-1.65-.5-7.42-5.47-8.76-.34-.09-.64.27-.48.59,1.73,3.38,1.51,5.64.72,7.12h-7.04c-.55-.62-1.35-1.01-2.24-1.01h-6.29v5.99h6.29c.83,0,1.58-.34,2.12-.88Z"/>
            </g>
          </g>
          <g>
            <path d="M141.32,82.62v3.68c0,.99.8,1.8,1.8,1.8h15.51v11.69h-15.51c-.99,0-1.8.8-1.8,1.8v3.68c0,.99.8,1.8,1.8,1.8h18.97c1.49,0,2.7,1.21,2.7,2.7v6.65c0,1.49-1.21,2.7-2.7,2.7h-35.15v-50.16h35.15c1.49,0,2.7,1.21,2.7,2.7v6.47c0,1.49-1.21,2.7-2.7,2.7h-18.97c-.99,0-1.8.8-1.8,1.8Z"/>
            <path class="cls-3" d="M157.31,94.11v.74c0,.42-.34.76-.76.76h-1.03c-.02.25-.23.45-.49.45h-2.23c-.52,0-.95-.42-.97-.94h-8.41v1.72c0,.4-.33.72-.72.72-.75,0-1.37-.61-1.37-1.36v-.14h-2.58c-.38.36-.9.57-1.46.57h-7.94c-.7,0-1.26-.57-1.26-1.26v-1.79c0-.7.57-1.26,1.26-1.26h7.94c.57,0,1.08.22,1.46.57h2.58v-.14c0-.75.61-1.36,1.37-1.36.2,0,.38.08.51.21s.21.31.21.51v1.72h8.44c.11-.54.59-.94,1.15-.94h2.02c.26,0,.47.2.49.45h1.03c.42,0,.76.34.76.76Z"/>
          </g>
        </g>
        <path class="cls-1" d="M144.28,61.31c0,.72-.29,1.37-.77,1.84-.47.47-1.12.77-1.84.77h-54.25c-1.38,0-2.59-1.04-2.68-2.42-.06-.79.25-1.52.76-2.03.47-.47,1.13-.77,1.85-.77h.61c1.04,0,1.88-.85,1.87-1.89,0-.09,0-.18,0-.27,0-9.38,4.42-17.63,11.11-22.43v16.69c0,1.87,1.42,3.48,3.29,3.58,1.89.1,3.48-1.3,3.67-3.12.01-.11.02-.23.02-.35v-18.44c.04-.67.19-1.32.42-1.92.95-2.48,3.36-4.24,6.18-4.24,1.83,0,3.48.74,4.68,1.94.65.65,1.16,1.43,1.5,2.31.28.74.44,1.54.44,2.37v17.87c0,1.92,1.5,3.57,3.42,3.6s3.55-1.54,3.55-3.48v-16.78c6.68,4.8,11.1,13.05,11.1,22.41,0,.09,0,.18,0,.27,0,1.04.83,1.89,1.87,1.89h.52c1.44,0,2.7,1.18,2.7,2.62Z"/>
      </g>
    </g>
  </g>
</svg>